<svg xmlns="http://www.w3.org/2000/svg" xmlns:rdkit="http://www.rdkit.org/xml" xmlns:xlink="http://www.w3.org/1999/xlink" version="1.1" baseProfile="full" xml:space="preserve" width="600px" height="200px" viewBox="0 0 600 200">
<!-- END OF HEADER -->
<rect style="opacity:0.0;fill:#FFFFFF;stroke:none" width="600.0" height="200.0" x="0.0" y="0.0"> </rect>
<path class="bond-0 atom-0 atom-1" d="M 9.6,114.4 L 22.4,117.8" style="fill:none;fill-rule:evenodd;stroke:#000000;stroke-width:2.0px;stroke-linecap:butt;stroke-linejoin:miter;stroke-opacity:1"/>
<path class="bond-0 atom-0 atom-1" d="M 8.9,116.9 L 21.7,120.3" style="fill:none;fill-rule:evenodd;stroke:#000000;stroke-width:2.0px;stroke-linecap:butt;stroke-linejoin:miter;stroke-opacity:1"/>
<path class="bond-1 atom-1 atom-2" d="M 22.0,119.0 L 31.4,109.7" style="fill:none;fill-rule:evenodd;stroke:#000000;stroke-width:2.0px;stroke-linecap:butt;stroke-linejoin:miter;stroke-opacity:1"/>
<path class="bond-2 atom-2 atom-3" d="M 30.1,110.0 L 28.8,104.9" style="fill:none;fill-rule:evenodd;stroke:#000000;stroke-width:2.0px;stroke-linecap:butt;stroke-linejoin:miter;stroke-opacity:1"/>
<path class="bond-2 atom-2 atom-3" d="M 28.8,104.9 L 27.4,99.9" style="fill:none;fill-rule:evenodd;stroke:#FF0000;stroke-width:2.0px;stroke-linecap:butt;stroke-linejoin:miter;stroke-opacity:1"/>
<path class="bond-2 atom-2 atom-3" d="M 32.7,109.3 L 31.3,104.2" style="fill:none;fill-rule:evenodd;stroke:#000000;stroke-width:2.0px;stroke-linecap:butt;stroke-linejoin:miter;stroke-opacity:1"/>
<path class="bond-2 atom-2 atom-3" d="M 31.3,104.2 L 30.0,99.2" style="fill:none;fill-rule:evenodd;stroke:#FF0000;stroke-width:2.0px;stroke-linecap:butt;stroke-linejoin:miter;stroke-opacity:1"/>
<path class="bond-3 atom-2 atom-4" d="M 31.4,109.7 L 36.8,111.1" style="fill:none;fill-rule:evenodd;stroke:#000000;stroke-width:2.0px;stroke-linecap:butt;stroke-linejoin:miter;stroke-opacity:1"/>
<path class="bond-3 atom-2 atom-4" d="M 36.8,111.1 L 42.2,112.5" style="fill:none;fill-rule:evenodd;stroke:#0000FF;stroke-width:2.0px;stroke-linecap:butt;stroke-linejoin:miter;stroke-opacity:1"/>
<path class="bond-4 atom-4 atom-5" d="M 46.3,111.0 L 49.9,107.4" style="fill:none;fill-rule:evenodd;stroke:#0000FF;stroke-width:2.0px;stroke-linecap:butt;stroke-linejoin:miter;stroke-opacity:1"/>
<path class="bond-4 atom-4 atom-5" d="M 49.9,107.4 L 53.6,103.7" style="fill:none;fill-rule:evenodd;stroke:#000000;stroke-width:2.0px;stroke-linecap:butt;stroke-linejoin:miter;stroke-opacity:1"/>
<path class="bond-5 atom-5 atom-6" d="M 53.6,103.7 L 66.4,107.1" style="fill:none;fill-rule:evenodd;stroke:#000000;stroke-width:2.0px;stroke-linecap:butt;stroke-linejoin:miter;stroke-opacity:1"/>
<path class="bond-6 atom-6 atom-7" d="M 66.4,107.1 L 69.9,103.6" style="fill:none;fill-rule:evenodd;stroke:#000000;stroke-width:2.0px;stroke-linecap:butt;stroke-linejoin:miter;stroke-opacity:1"/>
<path class="bond-6 atom-6 atom-7" d="M 69.9,103.6 L 73.4,100.1" style="fill:none;fill-rule:evenodd;stroke:#FF0000;stroke-width:2.0px;stroke-linecap:butt;stroke-linejoin:miter;stroke-opacity:1"/>
<path class="bond-7 atom-7 atom-8" d="M 78.1,98.4 L 83.4,99.7" style="fill:none;fill-rule:evenodd;stroke:#FF0000;stroke-width:2.0px;stroke-linecap:butt;stroke-linejoin:miter;stroke-opacity:1"/>
<path class="bond-7 atom-7 atom-8" d="M 83.4,99.7 L 88.6,101.1" style="fill:none;fill-rule:evenodd;stroke:#000000;stroke-width:2.0px;stroke-linecap:butt;stroke-linejoin:miter;stroke-opacity:1"/>
<path class="bond-8 atom-8 atom-9" d="M 88.6,101.1 L 92.0,113.9" style="fill:none;fill-rule:evenodd;stroke:#000000;stroke-width:2.0px;stroke-linecap:butt;stroke-linejoin:miter;stroke-opacity:1"/>
<path class="bond-8 atom-8 atom-9" d="M 91.7,102.4 L 94.1,111.3" style="fill:none;fill-rule:evenodd;stroke:#000000;stroke-width:2.0px;stroke-linecap:butt;stroke-linejoin:miter;stroke-opacity:1"/>
<path class="bond-9 atom-9 atom-10" d="M 92.0,113.9 L 104.8,117.4" style="fill:none;fill-rule:evenodd;stroke:#000000;stroke-width:2.0px;stroke-linecap:butt;stroke-linejoin:miter;stroke-opacity:1"/>
<path class="bond-10 atom-10 atom-11" d="M 104.8,117.4 L 106.2,122.5" style="fill:none;fill-rule:evenodd;stroke:#000000;stroke-width:2.0px;stroke-linecap:butt;stroke-linejoin:miter;stroke-opacity:1"/>
<path class="bond-10 atom-10 atom-11" d="M 106.2,122.5 L 107.6,127.6" style="fill:none;fill-rule:evenodd;stroke:#0000FF;stroke-width:2.0px;stroke-linecap:butt;stroke-linejoin:miter;stroke-opacity:1"/>
<path class="bond-10 atom-10 atom-11" d="M 107.8,118.2 L 108.8,121.8" style="fill:none;fill-rule:evenodd;stroke:#000000;stroke-width:2.0px;stroke-linecap:butt;stroke-linejoin:miter;stroke-opacity:1"/>
<path class="bond-10 atom-10 atom-11" d="M 108.8,121.8 L 109.7,125.4" style="fill:none;fill-rule:evenodd;stroke:#0000FF;stroke-width:2.0px;stroke-linecap:butt;stroke-linejoin:miter;stroke-opacity:1"/>
<path class="bond-11 atom-11 atom-12" d="M 110.3,130.7 L 115.7,132.1" style="fill:none;fill-rule:evenodd;stroke:#0000FF;stroke-width:2.0px;stroke-linecap:butt;stroke-linejoin:miter;stroke-opacity:1"/>
<path class="bond-11 atom-11 atom-12" d="M 115.7,132.1 L 121.1,133.6" style="fill:none;fill-rule:evenodd;stroke:#000000;stroke-width:2.0px;stroke-linecap:butt;stroke-linejoin:miter;stroke-opacity:1"/>
<path class="bond-12 atom-12 atom-13" d="M 121.1,133.6 L 124.8,129.9" style="fill:none;fill-rule:evenodd;stroke:#000000;stroke-width:2.0px;stroke-linecap:butt;stroke-linejoin:miter;stroke-opacity:1"/>
<path class="bond-12 atom-12 atom-13" d="M 124.8,129.9 L 128.4,126.2" style="fill:none;fill-rule:evenodd;stroke:#0000FF;stroke-width:2.0px;stroke-linecap:butt;stroke-linejoin:miter;stroke-opacity:1"/>
<path class="bond-12 atom-12 atom-13" d="M 120.3,130.6 L 122.9,128.0" style="fill:none;fill-rule:evenodd;stroke:#000000;stroke-width:2.0px;stroke-linecap:butt;stroke-linejoin:miter;stroke-opacity:1"/>
<path class="bond-12 atom-12 atom-13" d="M 122.9,128.0 L 125.4,125.5" style="fill:none;fill-rule:evenodd;stroke:#0000FF;stroke-width:2.0px;stroke-linecap:butt;stroke-linejoin:miter;stroke-opacity:1"/>
<path class="bond-13 atom-13 atom-14" d="M 129.8,121.6 L 128.4,116.5" style="fill:none;fill-rule:evenodd;stroke:#0000FF;stroke-width:2.0px;stroke-linecap:butt;stroke-linejoin:miter;stroke-opacity:1"/>
<path class="bond-13 atom-13 atom-14" d="M 128.4,116.5 L 127.0,111.4" style="fill:none;fill-rule:evenodd;stroke:#000000;stroke-width:2.0px;stroke-linecap:butt;stroke-linejoin:miter;stroke-opacity:1"/>
<path class="bond-14 atom-14 atom-15" d="M 127.0,111.4 L 130.7,107.7" style="fill:none;fill-rule:evenodd;stroke:#000000;stroke-width:2.0px;stroke-linecap:butt;stroke-linejoin:miter;stroke-opacity:1"/>
<path class="bond-14 atom-14 atom-15" d="M 130.7,107.7 L 134.3,104.0" style="fill:none;fill-rule:evenodd;stroke:#0000FF;stroke-width:2.0px;stroke-linecap:butt;stroke-linejoin:miter;stroke-opacity:1"/>
<path class="bond-15 atom-15 atom-16" d="M 138.4,102.5 L 143.8,104.0" style="fill:none;fill-rule:evenodd;stroke:#0000FF;stroke-width:2.0px;stroke-linecap:butt;stroke-linejoin:miter;stroke-opacity:1"/>
<path class="bond-15 atom-15 atom-16" d="M 143.8,104.0 L 149.2,105.4" style="fill:none;fill-rule:evenodd;stroke:#000000;stroke-width:2.0px;stroke-linecap:butt;stroke-linejoin:miter;stroke-opacity:1"/>
<path class="bond-16 atom-16 atom-17" d="M 149.2,105.4 L 152.6,118.2" style="fill:none;fill-rule:evenodd;stroke:#000000;stroke-width:2.0px;stroke-linecap:butt;stroke-linejoin:miter;stroke-opacity:1"/>
<path class="bond-16 atom-16 atom-17" d="M 152.3,106.6 L 154.7,115.6" style="fill:none;fill-rule:evenodd;stroke:#000000;stroke-width:2.0px;stroke-linecap:butt;stroke-linejoin:miter;stroke-opacity:1"/>
<path class="bond-17 atom-17 atom-18" d="M 152.6,118.2 L 165.4,121.6" style="fill:none;fill-rule:evenodd;stroke:#000000;stroke-width:2.0px;stroke-linecap:butt;stroke-linejoin:miter;stroke-opacity:1"/>
<path class="bond-18 atom-18 atom-19" d="M 165.4,121.6 L 174.8,112.2" style="fill:none;fill-rule:evenodd;stroke:#000000;stroke-width:2.0px;stroke-linecap:butt;stroke-linejoin:miter;stroke-opacity:1"/>
<path class="bond-18 atom-18 atom-19" d="M 165.0,118.3 L 171.5,111.8" style="fill:none;fill-rule:evenodd;stroke:#000000;stroke-width:2.0px;stroke-linecap:butt;stroke-linejoin:miter;stroke-opacity:1"/>
<path class="bond-19 atom-19 atom-20" d="M 174.8,112.2 L 180.3,113.7" style="fill:none;fill-rule:evenodd;stroke:#000000;stroke-width:2.0px;stroke-linecap:butt;stroke-linejoin:miter;stroke-opacity:1"/>
<path class="bond-19 atom-19 atom-20" d="M 180.3,113.7 L 185.7,115.2" style="fill:none;fill-rule:evenodd;stroke:#7F4C19;stroke-width:2.0px;stroke-linecap:butt;stroke-linejoin:miter;stroke-opacity:1"/>
<path class="bond-20 atom-19 atom-21" d="M 174.8,112.2 L 171.4,99.4" style="fill:none;fill-rule:evenodd;stroke:#000000;stroke-width:2.0px;stroke-linecap:butt;stroke-linejoin:miter;stroke-opacity:1"/>
<path class="bond-21 atom-21 atom-22" d="M 171.4,99.4 L 158.6,96.0" style="fill:none;fill-rule:evenodd;stroke:#000000;stroke-width:2.0px;stroke-linecap:butt;stroke-linejoin:miter;stroke-opacity:1"/>
<path class="bond-21 atom-21 atom-22" d="M 168.8,101.5 L 159.8,99.1" style="fill:none;fill-rule:evenodd;stroke:#000000;stroke-width:2.0px;stroke-linecap:butt;stroke-linejoin:miter;stroke-opacity:1"/>
<path class="bond-22 atom-22 atom-23" d="M 158.6,96.0 L 157.2,90.9" style="fill:none;fill-rule:evenodd;stroke:#000000;stroke-width:2.0px;stroke-linecap:butt;stroke-linejoin:miter;stroke-opacity:1"/>
<path class="bond-22 atom-22 atom-23" d="M 157.2,90.9 L 155.8,85.8" style="fill:none;fill-rule:evenodd;stroke:#33CCCC;stroke-width:2.0px;stroke-linecap:butt;stroke-linejoin:miter;stroke-opacity:1"/>
<path class="bond-23 atom-14 atom-24" d="M 127.0,111.4 L 114.2,108.0" style="fill:none;fill-rule:evenodd;stroke:#000000;stroke-width:2.0px;stroke-linecap:butt;stroke-linejoin:miter;stroke-opacity:1"/>
<path class="bond-23 atom-14 atom-24" d="M 124.4,113.4 L 115.4,111.0" style="fill:none;fill-rule:evenodd;stroke:#000000;stroke-width:2.0px;stroke-linecap:butt;stroke-linejoin:miter;stroke-opacity:1"/>
<path class="bond-24 atom-24 atom-25" d="M 114.2,108.0 L 110.7,95.2" style="fill:none;fill-rule:evenodd;stroke:#000000;stroke-width:2.0px;stroke-linecap:butt;stroke-linejoin:miter;stroke-opacity:1"/>
<path class="bond-25 atom-25 atom-26" d="M 110.7,95.2 L 97.9,91.7" style="fill:none;fill-rule:evenodd;stroke:#000000;stroke-width:2.0px;stroke-linecap:butt;stroke-linejoin:miter;stroke-opacity:1"/>
<path class="bond-25 atom-25 atom-26" d="M 108.1,97.2 L 99.2,94.8" style="fill:none;fill-rule:evenodd;stroke:#000000;stroke-width:2.0px;stroke-linecap:butt;stroke-linejoin:miter;stroke-opacity:1"/>
<path class="bond-26 atom-26 atom-27" d="M 97.9,91.7 L 96.6,86.6" style="fill:none;fill-rule:evenodd;stroke:#000000;stroke-width:2.0px;stroke-linecap:butt;stroke-linejoin:miter;stroke-opacity:1"/>
<path class="bond-26 atom-26 atom-27" d="M 96.6,86.6 L 95.2,81.5" style="fill:none;fill-rule:evenodd;stroke:#0000FF;stroke-width:2.0px;stroke-linecap:butt;stroke-linejoin:miter;stroke-opacity:1"/>
<path class="bond-27 atom-27 atom-28" d="M 96.5,76.9 L 100.2,73.2" style="fill:none;fill-rule:evenodd;stroke:#0000FF;stroke-width:2.0px;stroke-linecap:butt;stroke-linejoin:miter;stroke-opacity:1"/>
<path class="bond-27 atom-27 atom-28" d="M 100.2,73.2 L 103.9,69.6" style="fill:none;fill-rule:evenodd;stroke:#000000;stroke-width:2.0px;stroke-linecap:butt;stroke-linejoin:miter;stroke-opacity:1"/>
<path class="bond-28 atom-28 atom-29" d="M 104.2,68.3 L 109.4,69.7" style="fill:none;fill-rule:evenodd;stroke:#000000;stroke-width:2.0px;stroke-linecap:butt;stroke-linejoin:miter;stroke-opacity:1"/>
<path class="bond-28 atom-28 atom-29" d="M 109.4,69.7 L 114.6,71.1" style="fill:none;fill-rule:evenodd;stroke:#FF0000;stroke-width:2.0px;stroke-linecap:butt;stroke-linejoin:miter;stroke-opacity:1"/>
<path class="bond-28 atom-28 atom-29" d="M 103.5,70.8 L 108.7,72.2" style="fill:none;fill-rule:evenodd;stroke:#000000;stroke-width:2.0px;stroke-linecap:butt;stroke-linejoin:miter;stroke-opacity:1"/>
<path class="bond-28 atom-28 atom-29" d="M 108.7,72.2 L 113.9,73.6" style="fill:none;fill-rule:evenodd;stroke:#FF0000;stroke-width:2.0px;stroke-linecap:butt;stroke-linejoin:miter;stroke-opacity:1"/>
<path class="bond-29 atom-28 atom-30" d="M 103.9,69.6 L 100.4,56.8" style="fill:none;fill-rule:evenodd;stroke:#000000;stroke-width:2.0px;stroke-linecap:butt;stroke-linejoin:miter;stroke-opacity:1"/>
<path class="bond-30 atom-30 atom-31" d="M 99.5,55.8 L 108.8,46.4" style="fill:none;fill-rule:evenodd;stroke:#000000;stroke-width:2.0px;stroke-linecap:butt;stroke-linejoin:miter;stroke-opacity:1"/>
<path class="bond-30 atom-30 atom-31" d="M 101.3,57.7 L 110.7,48.3" style="fill:none;fill-rule:evenodd;stroke:#000000;stroke-width:2.0px;stroke-linecap:butt;stroke-linejoin:miter;stroke-opacity:1"/>
<path class="bond-31 atom-26 atom-8" d="M 97.9,91.7 L 88.6,101.1" style="fill:none;fill-rule:evenodd;stroke:#000000;stroke-width:2.0px;stroke-linecap:butt;stroke-linejoin:miter;stroke-opacity:1"/>
<path class="bond-32 atom-24 atom-10" d="M 114.2,108.0 L 104.8,117.4" style="fill:none;fill-rule:evenodd;stroke:#000000;stroke-width:2.0px;stroke-linecap:butt;stroke-linejoin:miter;stroke-opacity:1"/>
<path class="bond-33 atom-22 atom-16" d="M 158.6,96.0 L 149.2,105.4" style="fill:none;fill-rule:evenodd;stroke:#000000;stroke-width:2.0px;stroke-linecap:butt;stroke-linejoin:miter;stroke-opacity:1"/>
<path class="atom-3" d="M 26.0 96.9 Q 26.0 95.9, 26.5 95.3 Q 27.0 94.7, 28.0 94.7 Q 28.9 94.7, 29.4 95.3 Q 29.9 95.9, 29.9 96.9 Q 29.9 97.9, 29.4 98.5 Q 28.9 99.1, 28.0 99.1 Q 27.0 99.1, 26.5 98.5 Q 26.0 97.9, 26.0 96.9 M 28.0 98.6 Q 28.6 98.6, 29.0 98.2 Q 29.3 97.7, 29.3 96.9 Q 29.3 96.0, 29.0 95.6 Q 28.6 95.2, 28.0 95.2 Q 27.3 95.2, 27.0 95.6 Q 26.6 96.0, 26.6 96.9 Q 26.6 97.7, 27.0 98.2 Q 27.3 98.6, 28.0 98.6 " fill="#FF0000"/>
<path class="atom-4" d="M 43.3 111.0 L 44.7 113.2 Q 44.8 113.4, 45.0 113.8 Q 45.3 114.2, 45.3 114.3 L 45.3 111.0 L 45.8 111.0 L 45.8 115.2 L 45.2 115.2 L 43.8 112.7 Q 43.6 112.5, 43.4 112.1 Q 43.2 111.8, 43.2 111.7 L 43.2 115.2 L 42.6 115.2 L 42.6 111.0 L 43.3 111.0 " fill="#0000FF"/>
<path class="atom-4" d="M 42.6 115.6 L 43.1 115.6 L 43.1 117.4 L 45.3 117.4 L 45.3 115.6 L 45.9 115.6 L 45.9 119.9 L 45.3 119.9 L 45.3 117.9 L 43.1 117.9 L 43.1 119.9 L 42.6 119.9 L 42.6 115.6 " fill="#0000FF"/>
<path class="atom-7" d="M 73.8 97.7 Q 73.8 96.7, 74.3 96.1 Q 74.8 95.6, 75.8 95.6 Q 76.7 95.6, 77.2 96.1 Q 77.7 96.7, 77.7 97.7 Q 77.7 98.8, 77.2 99.4 Q 76.7 99.9, 75.8 99.9 Q 74.8 99.9, 74.3 99.4 Q 73.8 98.8, 73.8 97.7 M 75.8 99.5 Q 76.4 99.5, 76.8 99.0 Q 77.1 98.6, 77.1 97.7 Q 77.1 96.9, 76.8 96.5 Q 76.4 96.1, 75.8 96.1 Q 75.1 96.1, 74.8 96.5 Q 74.4 96.9, 74.4 97.7 Q 74.4 98.6, 74.8 99.0 Q 75.1 99.5, 75.8 99.5 " fill="#FF0000"/>
<path class="atom-11" d="M 107.3 128.0 L 108.7 130.3 Q 108.9 130.5, 109.1 130.9 Q 109.3 131.3, 109.3 131.3 L 109.3 128.0 L 109.9 128.0 L 109.9 132.3 L 109.3 132.3 L 107.8 129.8 Q 107.6 129.5, 107.5 129.2 Q 107.3 128.9, 107.2 128.8 L 107.2 132.3 L 106.7 132.3 L 106.7 128.0 L 107.3 128.0 " fill="#0000FF"/>
<path class="atom-13" d="M 129.5 122.1 L 130.9 124.3 Q 131.0 124.5, 131.3 124.9 Q 131.5 125.3, 131.5 125.4 L 131.5 122.1 L 132.1 122.1 L 132.1 126.3 L 131.5 126.3 L 130.0 123.8 Q 129.8 123.6, 129.6 123.2 Q 129.5 122.9, 129.4 122.8 L 129.4 126.3 L 128.8 126.3 L 128.8 122.1 L 129.5 122.1 " fill="#0000FF"/>
<path class="atom-15" d="M 135.4 99.9 L 136.8 102.1 Q 137.0 102.3, 137.2 102.7 Q 137.4 103.1, 137.4 103.2 L 137.4 99.9 L 138.0 99.9 L 138.0 104.1 L 137.4 104.1 L 135.9 101.7 Q 135.7 101.4, 135.5 101.0 Q 135.4 100.7, 135.3 100.6 L 135.3 104.1 L 134.8 104.1 L 134.8 99.9 L 135.4 99.9 " fill="#0000FF"/>
<path class="atom-15" d="M 134.7 95.2 L 135.3 95.2 L 135.3 97.0 L 137.5 97.0 L 137.5 95.2 L 138.0 95.2 L 138.0 99.4 L 137.5 99.4 L 137.5 97.5 L 135.3 97.5 L 135.3 99.4 L 134.7 99.4 L 134.7 95.2 " fill="#0000FF"/>
<path class="atom-20" d="M 188.2 115.5 Q 188.7 115.7, 188.9 115.9 Q 189.1 116.2, 189.1 116.5 Q 189.1 117.1, 188.7 117.5 Q 188.3 117.8, 187.6 117.8 L 186.2 117.8 L 186.2 113.5 L 187.4 113.5 Q 188.2 113.5, 188.5 113.8 Q 188.9 114.1, 188.9 114.7 Q 188.9 115.3, 188.2 115.5 M 186.7 114.0 L 186.7 115.3 L 187.4 115.3 Q 187.9 115.3, 188.1 115.2 Q 188.3 115.0, 188.3 114.7 Q 188.3 114.0, 187.4 114.0 L 186.7 114.0 M 187.6 117.3 Q 188.0 117.3, 188.2 117.1 Q 188.5 116.9, 188.5 116.5 Q 188.5 116.2, 188.2 116.0 Q 188.0 115.8, 187.5 115.8 L 186.7 115.8 L 186.7 117.3 L 187.6 117.3 " fill="#7F4C19"/>
<path class="atom-20" d="M 189.8 114.7 L 189.9 115.1 Q 190.2 114.6, 190.7 114.6 Q 190.9 114.6, 191.1 114.7 L 191.0 115.2 Q 190.8 115.1, 190.6 115.1 Q 190.4 115.1, 190.2 115.2 Q 190.0 115.3, 189.9 115.6 L 189.9 117.8 L 189.3 117.8 L 189.3 114.7 L 189.8 114.7 " fill="#7F4C19"/>
<path class="atom-23" d="M 153.8 81.1 L 156.4 81.1 L 156.4 81.6 L 154.4 81.6 L 154.4 82.9 L 156.1 82.9 L 156.1 83.4 L 154.4 83.4 L 154.4 85.3 L 153.8 85.3 L 153.8 81.1 " fill="#33CCCC"/>
<path class="atom-27" d="M 89.0 76.8 L 89.6 76.8 L 89.6 78.6 L 91.8 78.6 L 91.8 76.8 L 92.4 76.8 L 92.4 81.1 L 91.8 81.1 L 91.8 79.1 L 89.6 79.1 L 89.6 81.1 L 89.0 81.1 L 89.0 76.8 " fill="#0000FF"/>
<path class="atom-27" d="M 93.5 76.8 L 94.9 79.1 Q 95.1 79.3, 95.3 79.7 Q 95.5 80.1, 95.5 80.1 L 95.5 76.8 L 96.1 76.8 L 96.1 81.1 L 95.5 81.1 L 94.0 78.6 Q 93.8 78.3, 93.7 78.0 Q 93.5 77.7, 93.4 77.6 L 93.4 81.1 L 92.9 81.1 L 92.9 76.8 L 93.5 76.8 " fill="#0000FF"/>
<path class="atom-29" d="M 114.7 73.0 Q 114.7 72.0, 115.2 71.4 Q 115.7 70.8, 116.7 70.8 Q 117.6 70.8, 118.1 71.4 Q 118.6 72.0, 118.6 73.0 Q 118.6 74.0, 118.1 74.6 Q 117.6 75.2, 116.7 75.2 Q 115.7 75.2, 115.2 74.6 Q 114.7 74.0, 114.7 73.0 M 116.7 74.7 Q 117.3 74.7, 117.7 74.3 Q 118.0 73.8, 118.0 73.0 Q 118.0 72.1, 117.7 71.7 Q 117.3 71.3, 116.7 71.3 Q 116.0 71.3, 115.7 71.7 Q 115.3 72.1, 115.3 73.0 Q 115.3 73.8, 115.7 74.3 Q 116.0 74.7, 116.7 74.7 " fill="#FF0000"/>
<path class="legend" d="M 70.9 189.2 Q 70.9 186.4, 72.2 184.9 Q 73.5 183.4, 76.1 183.4 Q 78.4 183.4, 79.6 185.0 L 78.6 185.9 Q 77.7 184.7, 76.1 184.7 Q 74.3 184.7, 73.4 185.9 Q 72.5 187.0, 72.5 189.2 Q 72.5 191.4, 73.5 192.6 Q 74.4 193.7, 76.2 193.7 Q 77.5 193.7, 78.9 193.0 L 79.4 194.2 Q 78.8 194.6, 77.9 194.8 Q 77.0 195.0, 76.0 195.0 Q 73.5 195.0, 72.2 193.5 Q 70.9 192.0, 70.9 189.2 " fill="#000000"/>
<path class="legend" d="M 80.3 182.7 L 81.7 182.7 L 81.7 194.9 L 80.3 194.9 L 80.3 182.7 " fill="#000000"/>
<path class="legend" d="M 90.1 186.6 L 90.1 194.9 L 88.9 194.9 L 88.7 193.7 Q 87.6 195.0, 85.9 195.0 Q 84.5 195.0, 83.8 194.3 Q 83.1 193.5, 83.1 192.1 L 83.1 186.6 L 84.6 186.6 L 84.6 192.0 Q 84.6 192.9, 85.0 193.4 Q 85.4 193.8, 86.2 193.8 Q 87.0 193.8, 87.6 193.5 Q 88.2 193.1, 88.6 192.5 L 88.6 186.6 L 90.1 186.6 " fill="#000000"/>
<path class="legend" d="M 91.9 193.2 Q 92.6 193.5, 93.1 193.6 Q 93.7 193.8, 94.2 193.8 Q 94.9 193.8, 95.3 193.4 Q 95.7 193.1, 95.7 192.6 Q 95.7 192.2, 95.5 192.0 Q 95.3 191.7, 95.0 191.6 Q 94.8 191.5, 94.1 191.3 Q 94.0 191.2, 93.2 191.0 Q 92.5 190.7, 92.1 190.2 Q 91.7 189.6, 91.7 188.8 Q 91.7 187.8, 92.5 187.2 Q 93.2 186.5, 94.7 186.5 Q 95.3 186.5, 95.9 186.6 Q 96.5 186.8, 97.1 187.0 L 96.7 188.2 Q 96.1 188.0, 95.7 187.9 Q 95.2 187.7, 94.7 187.7 Q 94.0 187.7, 93.6 188.0 Q 93.2 188.3, 93.2 188.8 Q 93.2 189.3, 93.5 189.5 Q 93.8 189.7, 94.5 189.9 Q 94.7 190.0, 94.8 190.0 L 95.2 190.2 Q 95.9 190.4, 96.3 190.6 Q 96.7 190.9, 97.0 191.3 Q 97.3 191.8, 97.3 192.5 Q 97.3 193.7, 96.4 194.4 Q 95.6 195.0, 94.2 195.0 Q 93.4 195.0, 92.8 194.8 Q 92.1 194.7, 91.4 194.4 L 91.9 193.2 " fill="#000000"/>
<path class="legend" d="M 98.1 187.8 L 98.1 186.6 L 99.7 186.6 L 99.9 184.2 L 101.0 184.2 L 101.0 186.6 L 103.6 186.6 L 103.6 187.8 L 101.0 187.8 L 101.0 192.3 Q 101.0 193.8, 102.2 193.8 Q 102.7 193.8, 103.4 193.5 L 103.7 194.6 Q 102.8 195.0, 102.0 195.0 Q 100.9 195.0, 100.2 194.3 Q 99.5 193.7, 99.5 192.4 L 99.5 187.8 L 98.1 187.8 " fill="#000000"/>
<path class="legend" d="M 104.1 190.7 Q 104.1 188.7, 105.1 187.6 Q 106.1 186.5, 107.9 186.5 Q 109.7 186.5, 110.5 187.6 Q 111.4 188.6, 111.4 190.7 L 111.4 190.9 L 105.6 190.9 Q 105.7 192.3, 106.3 193.1 Q 106.9 193.8, 108.1 193.8 Q 108.7 193.8, 109.3 193.7 Q 109.9 193.5, 110.6 193.2 L 111.0 194.2 Q 110.2 194.6, 109.5 194.8 Q 108.8 195.0, 108.0 195.0 Q 106.1 195.0, 105.1 193.9 Q 104.1 192.7, 104.1 190.7 M 107.9 187.7 Q 107.0 187.7, 106.4 188.2 Q 105.9 188.8, 105.7 189.8 L 109.8 189.8 Q 109.7 188.7, 109.2 188.2 Q 108.8 187.7, 107.9 187.7 " fill="#000000"/>
<path class="legend" d="M 113.2 186.6 L 113.4 187.8 Q 114.2 186.5, 115.6 186.5 Q 116.1 186.5, 116.7 186.6 L 116.5 188.0 Q 115.8 187.8, 115.4 187.8 Q 114.7 187.8, 114.3 188.1 Q 113.8 188.4, 113.5 189.0 L 113.5 194.9 L 112.0 194.9 L 112.0 186.6 L 113.2 186.6 " fill="#000000"/>
<path class="legend" d="" fill="#000000"/>
<path class="legend" d="M 122.9 193.6 L 125.4 193.6 L 125.4 185.1 L 122.6 186.0 L 122.3 185.0 L 125.7 183.5 L 126.9 183.7 L 126.9 193.6 L 129.1 193.6 L 129.1 194.9 L 122.9 194.9 L 122.9 193.6 " fill="#000000"/>
<path class="bond-0 atom-0 atom-1" d="M 335.5,60.2 L 335.0,73.4" style="fill:none;fill-rule:evenodd;stroke:#000000;stroke-width:2.0px;stroke-linecap:butt;stroke-linejoin:miter;stroke-opacity:1"/>
<path class="bond-1 atom-1 atom-2" d="M 335.0,73.4 L 346.2,80.5" style="fill:none;fill-rule:evenodd;stroke:#000000;stroke-width:2.0px;stroke-linecap:butt;stroke-linejoin:miter;stroke-opacity:1"/>
<path class="bond-2 atom-1 atom-3" d="M 335.0,73.4 L 330.2,76.0" style="fill:none;fill-rule:evenodd;stroke:#000000;stroke-width:2.0px;stroke-linecap:butt;stroke-linejoin:miter;stroke-opacity:1"/>
<path class="bond-2 atom-1 atom-3" d="M 330.2,76.0 L 325.3,78.6" style="fill:none;fill-rule:evenodd;stroke:#0000FF;stroke-width:2.0px;stroke-linecap:butt;stroke-linejoin:miter;stroke-opacity:1"/>
<path class="bond-3 atom-3 atom-4" d="M 321.2,78.7 L 313.4,74.8" style="fill:none;fill-rule:evenodd;stroke:#0000FF;stroke-width:2.0px;stroke-linecap:butt;stroke-linejoin:miter;stroke-opacity:1"/>
<path class="bond-4 atom-4 atom-5" d="M 309.3,76.0 L 305.7,79.7" style="fill:none;fill-rule:evenodd;stroke:#0000FF;stroke-width:2.0px;stroke-linecap:butt;stroke-linejoin:miter;stroke-opacity:1"/>
<path class="bond-4 atom-4 atom-5" d="M 305.7,79.7 L 302.1,83.4" style="fill:none;fill-rule:evenodd;stroke:#000000;stroke-width:2.0px;stroke-linecap:butt;stroke-linejoin:miter;stroke-opacity:1"/>
<path class="bond-4 atom-4 atom-5" d="M 310.1,78.9 L 307.6,81.5" style="fill:none;fill-rule:evenodd;stroke:#0000FF;stroke-width:2.0px;stroke-linecap:butt;stroke-linejoin:miter;stroke-opacity:1"/>
<path class="bond-4 atom-4 atom-5" d="M 307.6,81.5 L 305.1,84.1" style="fill:none;fill-rule:evenodd;stroke:#000000;stroke-width:2.0px;stroke-linecap:butt;stroke-linejoin:miter;stroke-opacity:1"/>
<path class="bond-5 atom-5 atom-6" d="M 302.1,83.4 L 289.0,81.5" style="fill:none;fill-rule:evenodd;stroke:#000000;stroke-width:2.0px;stroke-linecap:butt;stroke-linejoin:miter;stroke-opacity:1"/>
<path class="bond-6 atom-6 atom-7" d="M 289.0,81.5 L 284.1,69.2" style="fill:none;fill-rule:evenodd;stroke:#000000;stroke-width:2.0px;stroke-linecap:butt;stroke-linejoin:miter;stroke-opacity:1"/>
<path class="bond-6 atom-6 atom-7" d="M 285.8,80.7 L 282.3,72.1" style="fill:none;fill-rule:evenodd;stroke:#000000;stroke-width:2.0px;stroke-linecap:butt;stroke-linejoin:miter;stroke-opacity:1"/>
<path class="bond-7 atom-7 atom-8" d="M 284.1,69.2 L 270.9,67.4" style="fill:none;fill-rule:evenodd;stroke:#000000;stroke-width:2.0px;stroke-linecap:butt;stroke-linejoin:miter;stroke-opacity:1"/>
<path class="bond-8 atom-8 atom-9" d="M 270.9,67.4 L 262.8,77.8" style="fill:none;fill-rule:evenodd;stroke:#000000;stroke-width:2.0px;stroke-linecap:butt;stroke-linejoin:miter;stroke-opacity:1"/>
<path class="bond-8 atom-8 atom-9" d="M 271.8,70.6 L 266.1,77.9" style="fill:none;fill-rule:evenodd;stroke:#000000;stroke-width:2.0px;stroke-linecap:butt;stroke-linejoin:miter;stroke-opacity:1"/>
<path class="bond-9 atom-9 atom-10" d="M 262.8,77.8 L 267.7,90.1" style="fill:none;fill-rule:evenodd;stroke:#000000;stroke-width:2.0px;stroke-linecap:butt;stroke-linejoin:miter;stroke-opacity:1"/>
<path class="bond-10 atom-10 atom-11" d="M 267.7,90.1 L 264.6,94.0" style="fill:none;fill-rule:evenodd;stroke:#000000;stroke-width:2.0px;stroke-linecap:butt;stroke-linejoin:miter;stroke-opacity:1"/>
<path class="bond-10 atom-10 atom-11" d="M 264.6,94.0 L 261.6,98.0" style="fill:none;fill-rule:evenodd;stroke:#FF0000;stroke-width:2.0px;stroke-linecap:butt;stroke-linejoin:miter;stroke-opacity:1"/>
<path class="bond-11 atom-10 atom-12" d="M 267.7,90.1 L 280.9,92.0" style="fill:none;fill-rule:evenodd;stroke:#000000;stroke-width:2.0px;stroke-linecap:butt;stroke-linejoin:miter;stroke-opacity:1"/>
<path class="bond-11 atom-10 atom-12" d="M 270.1,87.8 L 279.3,89.1" style="fill:none;fill-rule:evenodd;stroke:#000000;stroke-width:2.0px;stroke-linecap:butt;stroke-linejoin:miter;stroke-opacity:1"/>
<path class="bond-12 atom-5 atom-13" d="M 302.1,83.4 L 308.4,95.1" style="fill:none;fill-rule:evenodd;stroke:#000000;stroke-width:2.0px;stroke-linecap:butt;stroke-linejoin:miter;stroke-opacity:1"/>
<path class="bond-13 atom-13 atom-14" d="M 308.4,95.1 L 303.8,107.5" style="fill:none;fill-rule:evenodd;stroke:#000000;stroke-width:2.0px;stroke-linecap:butt;stroke-linejoin:miter;stroke-opacity:1"/>
<path class="bond-13 atom-13 atom-14" d="M 310.2,97.9 L 307.0,106.6" style="fill:none;fill-rule:evenodd;stroke:#000000;stroke-width:2.0px;stroke-linecap:butt;stroke-linejoin:miter;stroke-opacity:1"/>
<path class="bond-14 atom-14 atom-15" d="M 303.8,107.5 L 298.3,108.5" style="fill:none;fill-rule:evenodd;stroke:#000000;stroke-width:2.0px;stroke-linecap:butt;stroke-linejoin:miter;stroke-opacity:1"/>
<path class="bond-14 atom-14 atom-15" d="M 298.3,108.5 L 292.8,109.5" style="fill:none;fill-rule:evenodd;stroke:#0000FF;stroke-width:2.0px;stroke-linecap:butt;stroke-linejoin:miter;stroke-opacity:1"/>
<path class="bond-15 atom-14 atom-16" d="M 303.8,107.5 L 307.1,111.4" style="fill:none;fill-rule:evenodd;stroke:#000000;stroke-width:2.0px;stroke-linecap:butt;stroke-linejoin:miter;stroke-opacity:1"/>
<path class="bond-15 atom-14 atom-16" d="M 307.1,111.4 L 310.3,115.3" style="fill:none;fill-rule:evenodd;stroke:#0000FF;stroke-width:2.0px;stroke-linecap:butt;stroke-linejoin:miter;stroke-opacity:1"/>
<path class="bond-16 atom-16 atom-17" d="M 314.4,117.3 L 319.9,116.4" style="fill:none;fill-rule:evenodd;stroke:#0000FF;stroke-width:2.0px;stroke-linecap:butt;stroke-linejoin:miter;stroke-opacity:1"/>
<path class="bond-16 atom-16 atom-17" d="M 319.9,116.4 L 325.4,115.4" style="fill:none;fill-rule:evenodd;stroke:#000000;stroke-width:2.0px;stroke-linecap:butt;stroke-linejoin:miter;stroke-opacity:1"/>
<path class="bond-16 atom-16 atom-17" d="M 315.6,114.4 L 319.4,113.8" style="fill:none;fill-rule:evenodd;stroke:#0000FF;stroke-width:2.0px;stroke-linecap:butt;stroke-linejoin:miter;stroke-opacity:1"/>
<path class="bond-16 atom-16 atom-17" d="M 319.4,113.8 L 323.3,113.1" style="fill:none;fill-rule:evenodd;stroke:#000000;stroke-width:2.0px;stroke-linecap:butt;stroke-linejoin:miter;stroke-opacity:1"/>
<path class="bond-17 atom-17 atom-18" d="M 325.4,115.4 L 327.2,110.5" style="fill:none;fill-rule:evenodd;stroke:#000000;stroke-width:2.0px;stroke-linecap:butt;stroke-linejoin:miter;stroke-opacity:1"/>
<path class="bond-17 atom-17 atom-18" d="M 327.2,110.5 L 329.0,105.5" style="fill:none;fill-rule:evenodd;stroke:#0000FF;stroke-width:2.0px;stroke-linecap:butt;stroke-linejoin:miter;stroke-opacity:1"/>
<path class="bond-18 atom-18 atom-19" d="M 327.9,100.5 L 324.7,96.6" style="fill:none;fill-rule:evenodd;stroke:#0000FF;stroke-width:2.0px;stroke-linecap:butt;stroke-linejoin:miter;stroke-opacity:1"/>
<path class="bond-18 atom-18 atom-19" d="M 324.7,96.6 L 321.4,92.8" style="fill:none;fill-rule:evenodd;stroke:#000000;stroke-width:2.0px;stroke-linecap:butt;stroke-linejoin:miter;stroke-opacity:1"/>
<path class="bond-18 atom-18 atom-19" d="M 324.9,101.0 L 322.6,98.3" style="fill:none;fill-rule:evenodd;stroke:#0000FF;stroke-width:2.0px;stroke-linecap:butt;stroke-linejoin:miter;stroke-opacity:1"/>
<path class="bond-18 atom-18 atom-19" d="M 322.6,98.3 L 320.4,95.6" style="fill:none;fill-rule:evenodd;stroke:#000000;stroke-width:2.0px;stroke-linecap:butt;stroke-linejoin:miter;stroke-opacity:1"/>
<path class="bond-19 atom-19 atom-3" d="M 321.4,92.8 L 322.2,87.5" style="fill:none;fill-rule:evenodd;stroke:#000000;stroke-width:2.0px;stroke-linecap:butt;stroke-linejoin:miter;stroke-opacity:1"/>
<path class="bond-19 atom-19 atom-3" d="M 322.2,87.5 L 322.9,82.2" style="fill:none;fill-rule:evenodd;stroke:#0000FF;stroke-width:2.0px;stroke-linecap:butt;stroke-linejoin:miter;stroke-opacity:1"/>
<path class="bond-20 atom-12 atom-6" d="M 280.9,92.0 L 289.0,81.5" style="fill:none;fill-rule:evenodd;stroke:#000000;stroke-width:2.0px;stroke-linecap:butt;stroke-linejoin:miter;stroke-opacity:1"/>
<path class="bond-21 atom-19 atom-13" d="M 321.4,92.8 L 308.4,95.1" style="fill:none;fill-rule:evenodd;stroke:#000000;stroke-width:2.0px;stroke-linecap:butt;stroke-linejoin:miter;stroke-opacity:1"/>
<path class="atom-3" d="M 322.3 77.5 L 323.7 79.8 Q 323.9 80.0, 324.1 80.4 Q 324.3 80.8, 324.3 80.8 L 324.3 77.5 L 324.9 77.5 L 324.9 81.8 L 324.3 81.8 L 322.8 79.3 Q 322.6 79.0, 322.5 78.7 Q 322.3 78.4, 322.2 78.3 L 322.2 81.8 L 321.7 81.8 L 321.7 77.5 L 322.3 77.5 " fill="#0000FF"/>
<path class="atom-4" d="M 310.4 71.7 L 311.8 74.0 Q 312.0 74.2, 312.2 74.6 Q 312.4 75.0, 312.4 75.0 L 312.4 71.7 L 313.0 71.7 L 313.0 76.0 L 312.4 76.0 L 310.9 73.5 Q 310.7 73.2, 310.5 72.9 Q 310.4 72.5, 310.3 72.4 L 310.3 76.0 L 309.8 76.0 L 309.8 71.7 L 310.4 71.7 " fill="#0000FF"/>
<path class="atom-11" d="M 253.8 98.5 L 254.3 98.5 L 254.3 100.3 L 256.5 100.3 L 256.5 98.5 L 257.1 98.5 L 257.1 102.7 L 256.5 102.7 L 256.5 100.7 L 254.3 100.7 L 254.3 102.7 L 253.8 102.7 L 253.8 98.5 " fill="#FF0000"/>
<path class="atom-11" d="M 257.6 100.6 Q 257.6 99.6, 258.1 99.0 Q 258.6 98.4, 259.6 98.4 Q 260.5 98.4, 261.0 99.0 Q 261.5 99.6, 261.5 100.6 Q 261.5 101.6, 261.0 102.2 Q 260.5 102.8, 259.6 102.8 Q 258.6 102.8, 258.1 102.2 Q 257.6 101.6, 257.6 100.6 M 259.6 102.3 Q 260.2 102.3, 260.5 101.9 Q 260.9 101.4, 260.9 100.6 Q 260.9 99.7, 260.5 99.3 Q 260.2 98.9, 259.6 98.9 Q 258.9 98.9, 258.6 99.3 Q 258.2 99.7, 258.2 100.6 Q 258.2 101.4, 258.6 101.9 Q 258.9 102.3, 259.6 102.3 " fill="#FF0000"/>
<path class="atom-15" d="M 283.2 107.7 L 283.8 107.7 L 283.8 109.5 L 285.9 109.5 L 285.9 107.7 L 286.5 107.7 L 286.5 112.0 L 285.9 112.0 L 285.9 110.0 L 283.8 110.0 L 283.8 112.0 L 283.2 112.0 L 283.2 107.7 " fill="#0000FF"/>
<path class="atom-15" d="M 287.0 111.8 Q 287.1 111.5, 287.4 111.4 Q 287.6 111.2, 288.0 111.2 Q 288.4 111.2, 288.6 111.5 Q 288.9 111.7, 288.9 112.1 Q 288.9 112.5, 288.6 112.9 Q 288.3 113.3, 287.6 113.8 L 288.9 113.8 L 288.9 114.1 L 287.0 114.1 L 287.0 113.8 Q 287.6 113.4, 287.9 113.2 Q 288.2 112.9, 288.3 112.6 Q 288.5 112.4, 288.5 112.1 Q 288.5 111.9, 288.3 111.7 Q 288.2 111.6, 288.0 111.6 Q 287.7 111.6, 287.6 111.7 Q 287.4 111.7, 287.3 111.9 L 287.0 111.8 " fill="#0000FF"/>
<path class="atom-15" d="M 289.8 107.7 L 291.2 110.0 Q 291.4 110.2, 291.6 110.6 Q 291.8 111.0, 291.8 111.0 L 291.8 107.7 L 292.4 107.7 L 292.4 112.0 L 291.8 112.0 L 290.3 109.5 Q 290.1 109.2, 289.9 108.9 Q 289.8 108.6, 289.7 108.4 L 289.7 112.0 L 289.2 112.0 L 289.2 107.7 L 289.8 107.7 " fill="#0000FF"/>
<path class="atom-16" d="M 311.4 115.6 L 312.8 117.8 Q 312.9 118.0, 313.2 118.4 Q 313.4 118.8, 313.4 118.9 L 313.4 115.6 L 314.0 115.6 L 314.0 119.8 L 313.4 119.8 L 311.9 117.4 Q 311.7 117.1, 311.5 116.7 Q 311.3 116.4, 311.3 116.3 L 311.3 119.8 L 310.7 119.8 L 310.7 115.6 L 311.4 115.6 " fill="#0000FF"/>
<path class="atom-18" d="M 329.0 100.8 L 330.4 103.1 Q 330.5 103.3, 330.8 103.7 Q 331.0 104.1, 331.0 104.1 L 331.0 100.8 L 331.6 100.8 L 331.6 105.1 L 331.0 105.1 L 329.5 102.6 Q 329.3 102.3, 329.1 102.0 Q 328.9 101.7, 328.9 101.6 L 328.9 105.1 L 328.3 105.1 L 328.3 100.8 L 329.0 100.8 " fill="#0000FF"/>
<path class="legend" d="M 270.5 189.2 Q 270.5 186.4, 271.8 184.9 Q 273.1 183.4, 275.7 183.4 Q 278.0 183.4, 279.2 185.0 L 278.2 185.9 Q 277.3 184.7, 275.7 184.7 Q 273.9 184.7, 273.0 185.9 Q 272.1 187.0, 272.1 189.2 Q 272.1 191.4, 273.1 192.6 Q 274.0 193.7, 275.8 193.7 Q 277.1 193.7, 278.5 193.0 L 279.0 194.2 Q 278.4 194.6, 277.5 194.8 Q 276.6 195.0, 275.6 195.0 Q 273.1 195.0, 271.8 193.5 Q 270.5 192.0, 270.5 189.2 " fill="#000000"/>
<path class="legend" d="M 279.9 182.7 L 281.3 182.7 L 281.3 194.9 L 279.9 194.9 L 279.9 182.7 " fill="#000000"/>
<path class="legend" d="M 289.7 186.6 L 289.7 194.9 L 288.5 194.9 L 288.3 193.7 Q 287.2 195.0, 285.5 195.0 Q 284.1 195.0, 283.4 194.3 Q 282.7 193.5, 282.7 192.1 L 282.7 186.6 L 284.2 186.6 L 284.2 192.0 Q 284.2 192.9, 284.6 193.4 Q 285.0 193.8, 285.8 193.8 Q 286.6 193.8, 287.2 193.5 Q 287.8 193.1, 288.2 192.5 L 288.2 186.6 L 289.7 186.6 " fill="#000000"/>
<path class="legend" d="M 291.5 193.2 Q 292.2 193.5, 292.7 193.6 Q 293.3 193.8, 293.8 193.8 Q 294.5 193.8, 294.9 193.4 Q 295.3 193.1, 295.3 192.6 Q 295.3 192.2, 295.1 192.0 Q 294.9 191.7, 294.6 191.6 Q 294.4 191.5, 293.7 191.3 Q 293.6 191.2, 292.8 191.0 Q 292.1 190.7, 291.7 190.2 Q 291.3 189.6, 291.3 188.8 Q 291.3 187.8, 292.1 187.2 Q 292.8 186.5, 294.3 186.5 Q 294.9 186.5, 295.5 186.6 Q 296.1 186.8, 296.7 187.0 L 296.3 188.2 Q 295.7 188.0, 295.3 187.9 Q 294.8 187.7, 294.3 187.7 Q 293.6 187.7, 293.2 188.0 Q 292.8 188.3, 292.8 188.8 Q 292.8 189.3, 293.1 189.5 Q 293.4 189.7, 294.1 189.9 Q 294.3 190.0, 294.4 190.0 L 294.8 190.2 Q 295.5 190.4, 295.9 190.6 Q 296.3 190.9, 296.6 191.3 Q 296.9 191.8, 296.9 192.5 Q 296.9 193.7, 296.0 194.4 Q 295.2 195.0, 293.8 195.0 Q 293.0 195.0, 292.4 194.8 Q 291.7 194.7, 291.0 194.4 L 291.5 193.2 " fill="#000000"/>
<path class="legend" d="M 297.7 187.8 L 297.7 186.6 L 299.3 186.6 L 299.5 184.2 L 300.6 184.2 L 300.6 186.6 L 303.2 186.6 L 303.2 187.8 L 300.6 187.8 L 300.6 192.3 Q 300.6 193.8, 301.8 193.8 Q 302.3 193.8, 303.0 193.5 L 303.3 194.6 Q 302.4 195.0, 301.6 195.0 Q 300.5 195.0, 299.8 194.3 Q 299.1 193.7, 299.1 192.4 L 299.1 187.8 L 297.7 187.8 " fill="#000000"/>
<path class="legend" d="M 303.7 190.7 Q 303.7 188.7, 304.7 187.6 Q 305.7 186.5, 307.5 186.5 Q 309.3 186.5, 310.1 187.6 Q 311.0 188.6, 311.0 190.7 L 311.0 190.9 L 305.2 190.9 Q 305.3 192.3, 305.9 193.1 Q 306.5 193.8, 307.7 193.8 Q 308.3 193.8, 308.9 193.7 Q 309.5 193.5, 310.2 193.2 L 310.6 194.2 Q 309.8 194.6, 309.1 194.8 Q 308.4 195.0, 307.6 195.0 Q 305.7 195.0, 304.7 193.9 Q 303.7 192.7, 303.7 190.7 M 307.5 187.7 Q 306.6 187.7, 306.0 188.2 Q 305.5 188.8, 305.3 189.8 L 309.4 189.8 Q 309.3 188.7, 308.8 188.2 Q 308.4 187.7, 307.5 187.7 " fill="#000000"/>
<path class="legend" d="M 312.8 186.6 L 313.0 187.8 Q 313.8 186.5, 315.2 186.5 Q 315.7 186.5, 316.3 186.6 L 316.1 188.0 Q 315.4 187.8, 315.0 187.8 Q 314.3 187.8, 313.9 188.1 Q 313.4 188.4, 313.1 189.0 L 313.1 194.9 L 311.6 194.9 L 311.6 186.6 L 312.8 186.6 " fill="#000000"/>
<path class="legend" d="" fill="#000000"/>
<path class="legend" d="M 321.9 185.7 Q 322.3 184.6, 323.3 184.0 Q 324.3 183.4, 325.7 183.4 Q 327.4 183.4, 328.3 184.3 Q 329.3 185.3, 329.3 186.9 Q 329.3 188.6, 328.1 190.2 Q 326.8 191.7, 324.3 193.6 L 329.5 193.6 L 329.5 194.9 L 321.9 194.9 L 321.9 193.8 Q 324.0 192.3, 325.2 191.2 Q 326.5 190.0, 327.1 189.0 Q 327.7 188.0, 327.7 187.0 Q 327.7 185.9, 327.2 185.3 Q 326.6 184.7, 325.7 184.7 Q 324.8 184.7, 324.2 185.0 Q 323.5 185.4, 323.1 186.2 L 321.9 185.7 " fill="#000000"/>
<path class="bond-0 atom-0 atom-1" d="M 478.5,131.5 L 483.6,133.2" style="fill:none;fill-rule:evenodd;stroke:#000000;stroke-width:2.0px;stroke-linecap:butt;stroke-linejoin:miter;stroke-opacity:1"/>
<path class="bond-0 atom-0 atom-1" d="M 483.6,133.2 L 488.6,134.9" style="fill:none;fill-rule:evenodd;stroke:#FF0000;stroke-width:2.0px;stroke-linecap:butt;stroke-linejoin:miter;stroke-opacity:1"/>
<path class="bond-1 atom-1 atom-2" d="M 493.4,133.7 L 497.2,130.3" style="fill:none;fill-rule:evenodd;stroke:#FF0000;stroke-width:2.0px;stroke-linecap:butt;stroke-linejoin:miter;stroke-opacity:1"/>
<path class="bond-1 atom-1 atom-2" d="M 497.2,130.3 L 501.0,127.0" style="fill:none;fill-rule:evenodd;stroke:#000000;stroke-width:2.0px;stroke-linecap:butt;stroke-linejoin:miter;stroke-opacity:1"/>
<path class="bond-2 atom-2 atom-3" d="M 501.0,127.0 L 513.6,131.3" style="fill:none;fill-rule:evenodd;stroke:#000000;stroke-width:2.0px;stroke-linecap:butt;stroke-linejoin:miter;stroke-opacity:1"/>
<path class="bond-2 atom-2 atom-3" d="M 503.7,125.1 L 512.5,128.1" style="fill:none;fill-rule:evenodd;stroke:#000000;stroke-width:2.0px;stroke-linecap:butt;stroke-linejoin:miter;stroke-opacity:1"/>
<path class="bond-3 atom-3 atom-4" d="M 513.6,131.3 L 523.5,122.5" style="fill:none;fill-rule:evenodd;stroke:#000000;stroke-width:2.0px;stroke-linecap:butt;stroke-linejoin:miter;stroke-opacity:1"/>
<path class="bond-4 atom-4 atom-5" d="M 523.5,122.5 L 528.8,124.3" style="fill:none;fill-rule:evenodd;stroke:#000000;stroke-width:2.0px;stroke-linecap:butt;stroke-linejoin:miter;stroke-opacity:1"/>
<path class="bond-4 atom-4 atom-5" d="M 528.8,124.3 L 534.0,126.1" style="fill:none;fill-rule:evenodd;stroke:#0000FF;stroke-width:2.0px;stroke-linecap:butt;stroke-linejoin:miter;stroke-opacity:1"/>
<path class="bond-4 atom-4 atom-5" d="M 526.0,120.6 L 529.6,121.8" style="fill:none;fill-rule:evenodd;stroke:#000000;stroke-width:2.0px;stroke-linecap:butt;stroke-linejoin:miter;stroke-opacity:1"/>
<path class="bond-4 atom-4 atom-5" d="M 529.6,121.8 L 533.3,123.1" style="fill:none;fill-rule:evenodd;stroke:#0000FF;stroke-width:2.0px;stroke-linecap:butt;stroke-linejoin:miter;stroke-opacity:1"/>
<path class="bond-5 atom-5 atom-6" d="M 538.1,125.0 L 542.1,121.6" style="fill:none;fill-rule:evenodd;stroke:#0000FF;stroke-width:2.0px;stroke-linecap:butt;stroke-linejoin:miter;stroke-opacity:1"/>
<path class="bond-5 atom-5 atom-6" d="M 542.1,121.6 L 546.1,118.1" style="fill:none;fill-rule:evenodd;stroke:#000000;stroke-width:2.0px;stroke-linecap:butt;stroke-linejoin:miter;stroke-opacity:1"/>
<path class="bond-6 atom-6 atom-7" d="M 546.1,118.1 L 545.0,112.9" style="fill:none;fill-rule:evenodd;stroke:#000000;stroke-width:2.0px;stroke-linecap:butt;stroke-linejoin:miter;stroke-opacity:1"/>
<path class="bond-6 atom-6 atom-7" d="M 545.0,112.9 L 544.0,107.6" style="fill:none;fill-rule:evenodd;stroke:#0000FF;stroke-width:2.0px;stroke-linecap:butt;stroke-linejoin:miter;stroke-opacity:1"/>
<path class="bond-6 atom-6 atom-7" d="M 543.1,117.0 L 542.4,113.4" style="fill:none;fill-rule:evenodd;stroke:#000000;stroke-width:2.0px;stroke-linecap:butt;stroke-linejoin:miter;stroke-opacity:1"/>
<path class="bond-6 atom-6 atom-7" d="M 542.4,113.4 L 541.7,109.7" style="fill:none;fill-rule:evenodd;stroke:#0000FF;stroke-width:2.0px;stroke-linecap:butt;stroke-linejoin:miter;stroke-opacity:1"/>
<path class="bond-7 atom-7 atom-8" d="M 541.4,104.4 L 536.2,102.6" style="fill:none;fill-rule:evenodd;stroke:#0000FF;stroke-width:2.0px;stroke-linecap:butt;stroke-linejoin:miter;stroke-opacity:1"/>
<path class="bond-7 atom-7 atom-8" d="M 536.2,102.6 L 530.9,100.8" style="fill:none;fill-rule:evenodd;stroke:#000000;stroke-width:2.0px;stroke-linecap:butt;stroke-linejoin:miter;stroke-opacity:1"/>
<path class="bond-8 atom-8 atom-9" d="M 530.9,100.8 L 529.9,95.6" style="fill:none;fill-rule:evenodd;stroke:#000000;stroke-width:2.0px;stroke-linecap:butt;stroke-linejoin:miter;stroke-opacity:1"/>
<path class="bond-8 atom-8 atom-9" d="M 529.9,95.6 L 528.9,90.4" style="fill:none;fill-rule:evenodd;stroke:#0000FF;stroke-width:2.0px;stroke-linecap:butt;stroke-linejoin:miter;stroke-opacity:1"/>
<path class="bond-9 atom-9 atom-10" d="M 530.4,86.0 L 534.4,82.5" style="fill:none;fill-rule:evenodd;stroke:#0000FF;stroke-width:2.0px;stroke-linecap:butt;stroke-linejoin:miter;stroke-opacity:1"/>
<path class="bond-9 atom-9 atom-10" d="M 534.4,82.5 L 538.3,79.1" style="fill:none;fill-rule:evenodd;stroke:#000000;stroke-width:2.0px;stroke-linecap:butt;stroke-linejoin:miter;stroke-opacity:1"/>
<path class="bond-10 atom-10 atom-11" d="M 538.3,79.1 L 550.9,83.3" style="fill:none;fill-rule:evenodd;stroke:#000000;stroke-width:2.0px;stroke-linecap:butt;stroke-linejoin:miter;stroke-opacity:1"/>
<path class="bond-10 atom-10 atom-11" d="M 541.1,77.2 L 549.8,80.2" style="fill:none;fill-rule:evenodd;stroke:#000000;stroke-width:2.0px;stroke-linecap:butt;stroke-linejoin:miter;stroke-opacity:1"/>
<path class="bond-11 atom-11 atom-12" d="M 550.9,83.3 L 560.8,74.6" style="fill:none;fill-rule:evenodd;stroke:#000000;stroke-width:2.0px;stroke-linecap:butt;stroke-linejoin:miter;stroke-opacity:1"/>
<path class="bond-12 atom-12 atom-13" d="M 560.8,74.6 L 558.3,61.6" style="fill:none;fill-rule:evenodd;stroke:#000000;stroke-width:2.0px;stroke-linecap:butt;stroke-linejoin:miter;stroke-opacity:1"/>
<path class="bond-12 atom-12 atom-13" d="M 557.9,73.2 L 556.1,64.1" style="fill:none;fill-rule:evenodd;stroke:#000000;stroke-width:2.0px;stroke-linecap:butt;stroke-linejoin:miter;stroke-opacity:1"/>
<path class="bond-13 atom-13 atom-14" d="M 558.3,61.6 L 562.4,58.0" style="fill:none;fill-rule:evenodd;stroke:#000000;stroke-width:2.0px;stroke-linecap:butt;stroke-linejoin:miter;stroke-opacity:1"/>
<path class="bond-13 atom-13 atom-14" d="M 562.4,58.0 L 566.5,54.3" style="fill:none;fill-rule:evenodd;stroke:#33CCCC;stroke-width:2.0px;stroke-linecap:butt;stroke-linejoin:miter;stroke-opacity:1"/>
<path class="bond-14 atom-13 atom-15" d="M 558.3,61.6 L 545.7,57.3" style="fill:none;fill-rule:evenodd;stroke:#000000;stroke-width:2.0px;stroke-linecap:butt;stroke-linejoin:miter;stroke-opacity:1"/>
<path class="bond-15 atom-15 atom-16" d="M 545.7,57.3 L 544.7,52.2" style="fill:none;fill-rule:evenodd;stroke:#000000;stroke-width:2.0px;stroke-linecap:butt;stroke-linejoin:miter;stroke-opacity:1"/>
<path class="bond-15 atom-15 atom-16" d="M 544.7,52.2 L 543.7,47.1" style="fill:none;fill-rule:evenodd;stroke:#00CC00;stroke-width:2.0px;stroke-linecap:butt;stroke-linejoin:miter;stroke-opacity:1"/>
<path class="bond-16 atom-15 atom-17" d="M 545.7,57.3 L 535.7,66.1" style="fill:none;fill-rule:evenodd;stroke:#000000;stroke-width:2.0px;stroke-linecap:butt;stroke-linejoin:miter;stroke-opacity:1"/>
<path class="bond-16 atom-15 atom-17" d="M 546.0,60.6 L 539.0,66.7" style="fill:none;fill-rule:evenodd;stroke:#000000;stroke-width:2.0px;stroke-linecap:butt;stroke-linejoin:miter;stroke-opacity:1"/>
<path class="bond-17 atom-8 atom-18" d="M 530.9,100.8 L 520.9,109.5" style="fill:none;fill-rule:evenodd;stroke:#000000;stroke-width:2.0px;stroke-linecap:butt;stroke-linejoin:miter;stroke-opacity:1"/>
<path class="bond-17 atom-8 atom-18" d="M 531.2,104.1 L 524.2,110.2" style="fill:none;fill-rule:evenodd;stroke:#000000;stroke-width:2.0px;stroke-linecap:butt;stroke-linejoin:miter;stroke-opacity:1"/>
<path class="bond-18 atom-18 atom-19" d="M 520.9,109.5 L 508.4,105.3" style="fill:none;fill-rule:evenodd;stroke:#000000;stroke-width:2.0px;stroke-linecap:butt;stroke-linejoin:miter;stroke-opacity:1"/>
<path class="bond-19 atom-19 atom-20" d="M 508.4,105.3 L 498.4,114.0" style="fill:none;fill-rule:evenodd;stroke:#000000;stroke-width:2.0px;stroke-linecap:butt;stroke-linejoin:miter;stroke-opacity:1"/>
<path class="bond-19 atom-19 atom-20" d="M 508.6,108.6 L 501.7,114.7" style="fill:none;fill-rule:evenodd;stroke:#000000;stroke-width:2.0px;stroke-linecap:butt;stroke-linejoin:miter;stroke-opacity:1"/>
<path class="bond-20 atom-20 atom-21" d="M 498.4,114.0 L 493.3,112.3" style="fill:none;fill-rule:evenodd;stroke:#000000;stroke-width:2.0px;stroke-linecap:butt;stroke-linejoin:miter;stroke-opacity:1"/>
<path class="bond-20 atom-20 atom-21" d="M 493.3,112.3 L 488.3,110.6" style="fill:none;fill-rule:evenodd;stroke:#FF0000;stroke-width:2.0px;stroke-linecap:butt;stroke-linejoin:miter;stroke-opacity:1"/>
<path class="bond-21 atom-21 atom-22" d="M 485.4,107.2 L 484.3,101.9" style="fill:none;fill-rule:evenodd;stroke:#FF0000;stroke-width:2.0px;stroke-linecap:butt;stroke-linejoin:miter;stroke-opacity:1"/>
<path class="bond-21 atom-21 atom-22" d="M 484.3,101.9 L 483.3,96.7" style="fill:none;fill-rule:evenodd;stroke:#000000;stroke-width:2.0px;stroke-linecap:butt;stroke-linejoin:miter;stroke-opacity:1"/>
<path class="bond-22 atom-22 atom-23" d="M 483.3,96.7 L 470.7,92.5" style="fill:none;fill-rule:evenodd;stroke:#000000;stroke-width:2.0px;stroke-linecap:butt;stroke-linejoin:miter;stroke-opacity:1"/>
<path class="bond-23 atom-23 atom-24" d="M 470.7,92.5 L 468.2,79.5" style="fill:none;fill-rule:evenodd;stroke:#000000;stroke-width:2.0px;stroke-linecap:butt;stroke-linejoin:miter;stroke-opacity:1"/>
<path class="bond-24 atom-24 atom-25" d="M 468.2,79.5 L 462.9,77.7" style="fill:none;fill-rule:evenodd;stroke:#000000;stroke-width:2.0px;stroke-linecap:butt;stroke-linejoin:miter;stroke-opacity:1"/>
<path class="bond-24 atom-24 atom-25" d="M 462.9,77.7 L 457.7,75.9" style="fill:none;fill-rule:evenodd;stroke:#0000FF;stroke-width:2.0px;stroke-linecap:butt;stroke-linejoin:miter;stroke-opacity:1"/>
<path class="bond-25 atom-25 atom-26" d="M 455.1,72.6 L 454.1,67.4" style="fill:none;fill-rule:evenodd;stroke:#0000FF;stroke-width:2.0px;stroke-linecap:butt;stroke-linejoin:miter;stroke-opacity:1"/>
<path class="bond-25 atom-25 atom-26" d="M 454.1,67.4 L 453.0,62.2" style="fill:none;fill-rule:evenodd;stroke:#000000;stroke-width:2.0px;stroke-linecap:butt;stroke-linejoin:miter;stroke-opacity:1"/>
<path class="bond-26 atom-26 atom-27" d="M 453.0,62.2 L 440.5,57.9" style="fill:none;fill-rule:evenodd;stroke:#000000;stroke-width:2.0px;stroke-linecap:butt;stroke-linejoin:miter;stroke-opacity:1"/>
<path class="bond-27 atom-27 atom-28" d="M 440.5,57.9 L 430.5,66.6" style="fill:none;fill-rule:evenodd;stroke:#000000;stroke-width:2.0px;stroke-linecap:butt;stroke-linejoin:miter;stroke-opacity:1"/>
<path class="bond-28 atom-28 atom-29" d="M 430.5,66.6 L 433.1,79.7" style="fill:none;fill-rule:evenodd;stroke:#000000;stroke-width:2.0px;stroke-linecap:butt;stroke-linejoin:miter;stroke-opacity:1"/>
<path class="bond-29 atom-29 atom-30" d="M 433.1,79.7 L 445.6,83.9" style="fill:none;fill-rule:evenodd;stroke:#000000;stroke-width:2.0px;stroke-linecap:butt;stroke-linejoin:miter;stroke-opacity:1"/>
<path class="bond-30 atom-20 atom-2" d="M 498.4,114.0 L 501.0,127.0" style="fill:none;fill-rule:evenodd;stroke:#000000;stroke-width:2.0px;stroke-linecap:butt;stroke-linejoin:miter;stroke-opacity:1"/>
<path class="bond-31 atom-30 atom-25" d="M 445.6,83.9 L 449.6,80.5" style="fill:none;fill-rule:evenodd;stroke:#000000;stroke-width:2.0px;stroke-linecap:butt;stroke-linejoin:miter;stroke-opacity:1"/>
<path class="bond-31 atom-30 atom-25" d="M 449.6,80.5 L 453.6,77.0" style="fill:none;fill-rule:evenodd;stroke:#0000FF;stroke-width:2.0px;stroke-linecap:butt;stroke-linejoin:miter;stroke-opacity:1"/>
<path class="bond-32 atom-18 atom-4" d="M 520.9,109.5 L 523.5,122.5" style="fill:none;fill-rule:evenodd;stroke:#000000;stroke-width:2.0px;stroke-linecap:butt;stroke-linejoin:miter;stroke-opacity:1"/>
<path class="bond-33 atom-17 atom-10" d="M 535.7,66.1 L 538.3,79.1" style="fill:none;fill-rule:evenodd;stroke:#000000;stroke-width:2.0px;stroke-linecap:butt;stroke-linejoin:miter;stroke-opacity:1"/>
<path class="atom-1" d="M 489.1 135.8 Q 489.1 134.7, 489.6 134.2 Q 490.1 133.6, 491.0 133.6 Q 492.0 133.6, 492.5 134.2 Q 493.0 134.7, 493.0 135.8 Q 493.0 136.8, 492.5 137.4 Q 492.0 138.0, 491.0 138.0 Q 490.1 138.0, 489.6 137.4 Q 489.1 136.8, 489.1 135.8 M 491.0 137.5 Q 491.7 137.5, 492.0 137.1 Q 492.4 136.6, 492.4 135.8 Q 492.4 134.9, 492.0 134.5 Q 491.7 134.1, 491.0 134.1 Q 490.4 134.1, 490.0 134.5 Q 489.7 134.9, 489.7 135.8 Q 489.7 136.6, 490.0 137.1 Q 490.4 137.5, 491.0 137.5 " fill="#FF0000"/>
<path class="atom-5" d="M 535.1 124.7 L 536.5 126.9 Q 536.7 127.2, 536.9 127.6 Q 537.1 128.0, 537.1 128.0 L 537.1 124.7 L 537.7 124.7 L 537.7 128.9 L 537.1 128.9 L 535.6 126.5 Q 535.4 126.2, 535.3 125.9 Q 535.1 125.5, 535.0 125.4 L 535.0 128.9 L 534.5 128.9 L 534.5 124.7 L 535.1 124.7 " fill="#0000FF"/>
<path class="atom-7" d="M 542.5 103.0 L 543.9 105.2 Q 544.1 105.4, 544.3 105.8 Q 544.5 106.2, 544.5 106.3 L 544.5 103.0 L 545.1 103.0 L 545.1 107.2 L 544.5 107.2 L 543.0 104.7 Q 542.8 104.5, 542.7 104.1 Q 542.5 103.8, 542.4 103.7 L 542.4 107.2 L 541.9 107.2 L 541.9 103.0 L 542.5 103.0 " fill="#0000FF"/>
<path class="atom-9" d="M 522.9 85.7 L 523.5 85.7 L 523.5 87.5 L 525.6 87.5 L 525.6 85.7 L 526.2 85.7 L 526.2 89.9 L 525.6 89.9 L 525.6 88.0 L 523.5 88.0 L 523.5 89.9 L 522.9 89.9 L 522.9 85.7 " fill="#0000FF"/>
<path class="atom-9" d="M 527.4 85.7 L 528.8 87.9 Q 528.9 88.1, 529.2 88.5 Q 529.4 89.0, 529.4 89.0 L 529.4 85.7 L 530.0 85.7 L 530.0 89.9 L 529.4 89.9 L 527.9 87.5 Q 527.7 87.2, 527.5 86.8 Q 527.3 86.5, 527.3 86.4 L 527.3 89.9 L 526.7 89.9 L 526.7 85.7 L 527.4 85.7 " fill="#0000FF"/>
<path class="atom-14" d="M 567.0 50.7 L 569.5 50.7 L 569.5 51.2 L 567.5 51.2 L 567.5 52.5 L 569.3 52.5 L 569.3 53.0 L 567.5 53.0 L 567.5 55.0 L 567.0 55.0 L 567.0 50.7 " fill="#33CCCC"/>
<path class="atom-16" d="M 541.5 44.5 Q 541.5 43.4, 542.0 42.9 Q 542.5 42.3, 543.4 42.3 Q 544.3 42.3, 544.8 42.9 L 544.4 43.2 Q 544.0 42.8, 543.4 42.8 Q 542.8 42.8, 542.4 43.2 Q 542.1 43.6, 542.1 44.5 Q 542.1 45.3, 542.5 45.7 Q 542.8 46.2, 543.5 46.2 Q 544.0 46.2, 544.5 45.9 L 544.7 46.3 Q 544.5 46.5, 544.1 46.6 Q 543.8 46.6, 543.4 46.6 Q 542.5 46.6, 542.0 46.1 Q 541.5 45.5, 541.5 44.5 " fill="#00CC00"/>
<path class="atom-16" d="M 545.0 42.0 L 545.6 42.0 L 545.6 46.6 L 545.0 46.6 L 545.0 42.0 " fill="#00CC00"/>
<path class="atom-21" d="M 483.9 109.8 Q 483.9 108.7, 484.4 108.2 Q 484.9 107.6, 485.9 107.6 Q 486.8 107.6, 487.3 108.2 Q 487.8 108.7, 487.8 109.8 Q 487.8 110.8, 487.3 111.4 Q 486.8 112.0, 485.9 112.0 Q 484.9 112.0, 484.4 111.4 Q 483.9 110.8, 483.9 109.8 M 485.9 111.5 Q 486.5 111.5, 486.9 111.0 Q 487.2 110.6, 487.2 109.8 Q 487.2 108.9, 486.9 108.5 Q 486.5 108.1, 485.9 108.1 Q 485.2 108.1, 484.9 108.5 Q 484.5 108.9, 484.5 109.8 Q 484.5 110.6, 484.9 111.0 Q 485.2 111.5, 485.9 111.5 " fill="#FF0000"/>
<path class="atom-25" d="M 454.7 73.1 L 456.1 75.3 Q 456.2 75.5, 456.4 75.9 Q 456.6 76.3, 456.6 76.4 L 456.6 73.1 L 457.2 73.1 L 457.2 77.3 L 456.6 77.3 L 455.1 74.8 Q 455.0 74.6, 454.8 74.2 Q 454.6 73.9, 454.5 73.8 L 454.5 77.3 L 454.0 77.3 L 454.0 73.1 L 454.7 73.1 " fill="#0000FF"/>
<path class="legend" d="M 470.5 189.2 Q 470.5 186.3, 471.8 184.9 Q 473.1 183.4, 475.7 183.4 Q 478.0 183.4, 479.2 185.0 L 478.2 185.9 Q 477.3 184.7, 475.7 184.7 Q 473.9 184.7, 473.0 185.8 Q 472.1 187.0, 472.1 189.2 Q 472.1 191.4, 473.1 192.6 Q 474.0 193.7, 475.8 193.7 Q 477.1 193.7, 478.5 193.0 L 479.0 194.2 Q 478.4 194.5, 477.5 194.8 Q 476.6 195.0, 475.6 195.0 Q 473.1 195.0, 471.8 193.5 Q 470.5 192.0, 470.5 189.2 " fill="#000000"/>
<path class="legend" d="M 479.9 182.7 L 481.4 182.7 L 481.4 194.8 L 479.9 194.8 L 479.9 182.7 " fill="#000000"/>
<path class="legend" d="M 489.7 186.6 L 489.7 194.8 L 488.5 194.8 L 488.3 193.7 Q 487.2 195.0, 485.5 195.0 Q 484.1 195.0, 483.4 194.2 Q 482.7 193.5, 482.7 192.1 L 482.7 186.6 L 484.2 186.6 L 484.2 191.9 Q 484.2 192.9, 484.6 193.4 Q 485.0 193.8, 485.8 193.8 Q 486.6 193.8, 487.2 193.5 Q 487.8 193.1, 488.2 192.5 L 488.2 186.6 L 489.7 186.6 " fill="#000000"/>
<path class="legend" d="M 491.5 193.1 Q 492.2 193.4, 492.7 193.6 Q 493.3 193.7, 493.8 193.7 Q 494.5 193.7, 494.9 193.4 Q 495.4 193.1, 495.4 192.5 Q 495.4 192.2, 495.1 191.9 Q 494.9 191.7, 494.7 191.6 Q 494.4 191.5, 493.7 191.2 Q 493.6 191.2, 492.8 191.0 Q 492.1 190.7, 491.7 190.2 Q 491.3 189.6, 491.3 188.8 Q 491.3 187.8, 492.1 187.1 Q 492.8 186.5, 494.3 186.5 Q 495.0 186.5, 495.5 186.6 Q 496.1 186.8, 496.7 187.0 L 496.3 188.2 Q 495.7 188.0, 495.3 187.8 Q 494.8 187.7, 494.3 187.7 Q 493.6 187.7, 493.2 188.0 Q 492.8 188.3, 492.8 188.8 Q 492.8 189.2, 493.1 189.5 Q 493.4 189.7, 494.1 189.9 Q 494.3 190.0, 494.4 190.0 L 494.8 190.2 Q 495.5 190.4, 495.9 190.6 Q 496.3 190.8, 496.6 191.3 Q 496.9 191.8, 496.9 192.5 Q 496.9 193.7, 496.0 194.3 Q 495.2 195.0, 493.8 195.0 Q 493.1 195.0, 492.4 194.8 Q 491.7 194.6, 491.0 194.4 L 491.5 193.1 " fill="#000000"/>
<path class="legend" d="M 497.7 187.8 L 497.7 186.6 L 499.3 186.6 L 499.5 184.2 L 500.7 184.2 L 500.7 186.6 L 503.2 186.6 L 503.2 187.8 L 500.7 187.8 L 500.7 192.3 Q 500.7 193.7, 501.9 193.7 Q 502.3 193.7, 503.0 193.5 L 503.3 194.6 Q 502.4 194.9, 501.6 194.9 Q 500.5 194.9, 499.8 194.3 Q 499.1 193.7, 499.1 192.4 L 499.1 187.8 L 497.7 187.8 " fill="#000000"/>
<path class="legend" d="M 503.7 190.7 Q 503.7 188.7, 504.7 187.6 Q 505.7 186.5, 507.5 186.5 Q 509.4 186.5, 510.2 187.6 Q 511.0 188.6, 511.0 190.7 L 511.0 190.9 L 505.2 190.9 Q 505.3 192.3, 505.9 193.0 Q 506.5 193.8, 507.7 193.8 Q 508.3 193.8, 508.9 193.6 Q 509.5 193.5, 510.2 193.2 L 510.7 194.2 Q 509.8 194.6, 509.1 194.8 Q 508.4 195.0, 507.6 195.0 Q 505.7 195.0, 504.7 193.8 Q 503.7 192.7, 503.7 190.7 M 507.5 187.7 Q 506.6 187.7, 506.0 188.2 Q 505.5 188.7, 505.3 189.8 L 509.4 189.8 Q 509.3 188.7, 508.8 188.2 Q 508.4 187.7, 507.5 187.7 " fill="#000000"/>
<path class="legend" d="M 512.8 186.6 L 513.0 187.8 Q 513.8 186.5, 515.2 186.5 Q 515.7 186.5, 516.3 186.6 L 516.1 188.0 Q 515.4 187.8, 515.0 187.8 Q 514.3 187.8, 513.9 188.1 Q 513.4 188.3, 513.1 189.0 L 513.1 194.8 L 511.6 194.8 L 511.6 186.6 L 512.8 186.6 " fill="#000000"/>
<path class="legend" d="" fill="#000000"/>
<path class="legend" d="M 527.3 188.9 Q 528.4 189.2, 528.9 189.9 Q 529.5 190.6, 529.5 191.7 Q 529.5 192.7, 529.0 193.4 Q 528.5 194.2, 527.7 194.6 Q 526.8 195.0, 525.6 195.0 Q 524.4 195.0, 523.5 194.6 Q 522.6 194.2, 521.9 193.3 L 522.8 192.4 Q 523.5 193.1, 524.1 193.4 Q 524.7 193.7, 525.6 193.7 Q 526.6 193.7, 527.3 193.2 Q 527.9 192.6, 527.9 191.7 Q 527.9 190.6, 527.2 190.1 Q 526.6 189.5, 525.2 189.5 L 524.4 189.5 L 524.4 188.4 L 525.1 188.4 Q 526.3 188.4, 527.0 187.8 Q 527.7 187.3, 527.7 186.3 Q 527.7 185.5, 527.1 185.1 Q 526.6 184.7, 525.6 184.7 Q 524.7 184.7, 524.1 185.0 Q 523.5 185.3, 523.1 186.2 L 522.0 185.6 Q 522.4 184.6, 523.3 184.0 Q 524.3 183.4, 525.6 183.4 Q 527.3 183.4, 528.3 184.2 Q 529.3 185.0, 529.3 186.3 Q 529.3 187.2, 528.8 187.8 Q 528.3 188.5, 527.3 188.9 " fill="#000000"/>
</svg>